<?xml version="1.0" encoding="UTF-8"?><svg id="Layer_1" xmlns="http://www.w3.org/2000/svg" viewBox="0 0 600.72 166.48"><defs><style>.cls-1{fill:#00f376;}.cls-2{fill:#ffd200;}.cls-3{fill:#ff737c;}</style></defs><g><polygon class="cls-1" points="399.11 11.06 414.88 11.06 402.02 .29 386.49 .29 354.37 .29 358.65 5.64 392.76 5.64 399.11 11.06"/><polygon class="cls-2" points="402.71 14.14 412.82 22.77 428.86 22.77 418.55 14.14 402.71 14.14"/><polygon class="cls-2" points="487.65 72.03 450.58 40.98 434.14 40.98 413.26 40.98 386.02 40.98 391.38 47.67 441.98 47.67 470.5 72.03 487.65 72.03"/><polygon class="cls-3" points="531.31 123.96 549.63 123.96 493.4 76.85 476.14 76.85 531.31 123.96"/><polygon class="cls-3" points="557.3 130.39 538.84 130.39 519.72 130.39 455.74 130.39 465.73 143.06 553.67 143.06 580.84 166.26 600.11 166.26 557.3 130.39"/><polygon class="cls-2" points="430.06 37.5 446.43 37.5 428.86 22.77 412.82 22.77 430.06 37.5"/></g><g><polygon class="cls-1" points="201.12 11.06 185.35 11.06 198.21 .29 213.74 .29 245.86 .29 241.58 5.64 207.47 5.64 201.12 11.06"/><polygon class="cls-2" points="197.52 14.14 187.41 22.77 171.37 22.77 181.68 14.14 197.52 14.14"/><polygon class="cls-2" points="112.58 72.03 149.65 40.98 166.09 40.98 186.97 40.98 214.21 40.98 208.85 47.67 158.25 47.67 129.73 72.03 112.58 72.03"/><polygon class="cls-3" points="68.92 123.96 50.6 123.96 106.83 76.85 124.09 76.85 68.92 123.96"/><polygon class="cls-3" points="42.93 130.39 61.39 130.39 80.51 130.39 144.49 130.39 134.5 143.06 46.56 143.06 19.39 166.26 .11 166.26 42.93 130.39"/><polygon class="cls-2" points="170.17 37.5 153.8 37.5 171.37 22.77 187.41 22.77 170.17 37.5"/></g></svg>